#!OML:ASF H:\ManfredETheater\Project 1\Capture day 1\Session 1\subject.ASF
:FULLY-SPECIFIED
:DEGREES
400
root 1.47707 16.7026 -21.2446 -158.824 -3.19345 184.189
lowerback 12.7895 1.97316 7.90111
upperback -0.548125 3.7635 0.552602
thorax -7.30536 1.49374 -4.55389
lowerneck -20.1442 -2.78305 -3.25579
upperneck 3.47061 -3.39462 1.81248
head 4.2997 -1.74768 0.760271
rclavicle 5.96354e-016 -3.29983e-014
rhumerus -1.81971 13.4128 -67.0027
rradius 126.327
rwrist -17.3928
rhand -24.4873 14.9231
rfingers 7.12502
rthumb 2.00671 -15.0472
lclavicle 5.96354e-016 -3.29983e-014
lhumerus -85.8734 -5.40973 83.6739
lradius 94.056
lwrist 15.8565
lhand -26.8924 -7.01083
lfingers 7.12502
lthumb -0.316184 22.9687
rfemur 7.98573 -0.872303 29.2674
rtibia 37.6187
rfoot 21.2604 -11.9237
rtoes 5.89083
lfemur -73.7189 3.68207 -21.9655
ltibia 56.9761
lfoot -9.96843 -7.84895
ltoes -16.4351
401
root 1.50855 16.7051 -21.8456 -159.382 -3.66777 184.019
lowerback 13.1148 1.763 7.49518
upperback -0.329173 3.43375 0.557075
thorax -7.31814 1.35112 -4.27529
lowerneck -20.2984 -2.73642 -3.31339
upperneck 3.31386 -3.35541 2.10829
head 4.27917 -1.71609 0.864881
rclavicle -3.95581e-014 -1.98785e-015
rhumerus -4.34696 14.9691 -68.6056
rradius 124.105
rwrist -16.4883
rhand -24.5012 14.7334
rfingers 7.12502
rthumb 1.99334 -15.2371
lclavicle -3.95581e-014 -1.98785e-015
lhumerus -83.7863 -4.4924 83.8473
lradius 94.1173
lwrist 15.751
lhand -27.2516 -7.28042
lfingers 7.12502
lthumb -0.663115 22.6983
rfemur 6.38609 -1.78402 29.2733
rtibia 42.6692
rfoot 20.1186 -13.0514
rtoes 7.81492
lfemur -72.1811 4.06384 -22.8294
ltibia 56.0754
lfoot -9.40415 -7.80667
ltoes -15.9781
402
root 1.54007 16.7019 -22.4479 -159.982 -4.0865 183.671
lowerback 13.4828 1.56118 6.90724
upperback -0.0917644 3.08408 0.509732
thorax -7.3388 1.20451 -3.94452
lowerneck -20.4611 -2.71425 -3.37557
upperneck 3.20787 -3.34545 2.40872
head 4.27674 -1.69762 0.968593
rclavicle -1.07344e-014 5.56597e-015
rhumerus -7.20454 16.3168 -70.5556
rradius 121.591
rwrist -15.7004
rhand -24.5908 14.5119
rfingers 7.12502
rthumb 1.90678 -15.4593
lclavicle -1.07344e-014 5.56597e-015
lhumerus -81.3546 -3.7125 84.2865
lradius 94.0647
lwrist 15.5555
lhand -27.573 -7.65743
lfingers 7.12502
lthumb -0.973472 22.3201
rfemur 4.61805 -2.77019 29.0167
rtibia 47.8488
rfoot 18.9317 -13.9373
rtoes 9.60132
lfemur -70.4569 4.37075 -23.683
ltibia 55.7889
lfoot -9.26447 -7.82925
ltoes -15.0364
403
root 1.57043 16.693 -23.0515 -160.617 -4.45049 183.142
lowerback 13.9056 1.37493 6.16556
upperback 0.155072 2.72532 0.391642
thorax -7.378 1.05643 -3.59907
lowerneck -20.648 -2.72401 -3.43296
upperneck 3.16256 -3.37693 2.71769
head 4.29834 -1.69747 1.06978
rclavicle 1.70955e-014 -1.59028e-014
rhumerus -10.3136 17.3254 -72.8145
rradius 118.774
rwrist -15.0859
rhand -24.7113 14.344
rfingers 7.12502
rthumb 1.79035 -15.6282
lclavicle 1.70955e-014 -1.59028e-014
lhumerus -78.5948 -3.14153 84.9588
lradius 93.8902
lwrist 15.1876
lhand -27.8388 -8.11402
lfingers 7.12502
lthumb -1.23022 21.8622
rfemur 2.70048 -3.81714 28.4811
rtibia 53.0757
rfoot 17.588 -14.4829
rtoes 10.9343
lfemur -68.5183 4.57725 -24.5215
ltibia 55.993
lfoot -9.57748 -7.91816
ltoes -13.2426
404
root 1.59813 16.6787 -23.656 -161.3 -4.81724 182.42
lowerback 14.4197 1.18212 5.31507
upperback 0.407858 2.33166 0.191919
thorax -7.45839 0.890656 -3.27079
lowerneck -20.8491 -2.75511 -3.44745
upperneck 3.15881 -3.44428 3.00745
head 4.33538 -1.71437 1.15442
rclavicle 2.10712e-014 8.74653e-015
rhumerus -13.5967 17.9019 -75.3452
rradius 115.651
rwrist -14.6706
rhand -24.8396 14.2037
rfingers 7.12502
rthumb 1.66648 -15.7695
lclavicle 2.10712e-014 8.74653e-015
lhumerus -75.529 -2.818 85.8141
lradius 93.5838
lwrist 14.6059
lhand -28.0675 -8.6064
lfingers 7.12502
lthumb -1.4511 21.3684
rfemur 0.680579 -4.96081 27.6625
rtibia 58.2707
rfoot 16.0057 -14.6667
rtoes 11.8086
lfemur -66.3205 4.62717 -25.3676
ltibia 56.5313
lfoot -10.4247 -7.93428
ltoes -10.7463
405
root 1.6231 16.6592 -24.2592 -162.003 -5.19463 181.504
lowerback 15.0271 0.981157 4.35566
upperback 0.651882 1.89523 -0.0873103
thorax -7.59568 0.702391 -2.95369
lowerneck -21.0369 -2.79423 -3.40728
upperneck 3.16652 -3.5334 3.26458
head 4.3735 -1.74276 1.21815
rclavicle -1.37161e-014 1.5704e-014
rhumerus -16.9493 17.9892 -78.0671
rradius 112.219
rwrist -14.4837
rhand -24.9442 14.0333
rfingers 7.12502
rthumb 1.56547 -15.9407
lclavicle -1.37161e-014 1.5704e-014
lhumerus -72.1772 -2.7461 86.8009
lradius 93.1343
lwrist 13.8347
lhand -28.2817 -9.07569
lfingers 7.12502
lthumb -1.658 20.8976
rfemur -1.47505 -6.18638 26.5594
rtibia 63.4138
rfoot 14.1588 -14.4896
rtoes 12.2248
lfemur -63.9123 4.50584 -26.2511
ltibia 57.3014
lfoot -11.7011 -7.78475
ltoes -7.7014
